<svg xmlns="http://www.w3.org/2000/svg" width="202" height="179" viewBox="0 0 202 179" fill="none">
  <path fill-rule="evenodd" clip-rule="evenodd" d="M57.7994 118.792C57.6456 118.644 57.4933 118.496 57.3409 118.347L54.4813 115.488C40.5302 99.3513 37.3982 95.2392 34.2008 89.6939C21.6177 67.8684 19.7425 44.5977 31.6338 25.9463C39.124 14.1984 51.1068 5.79714 65.7474 0.90918C48.7409 4.89144 34.5362 13.3197 25.6405 26.0513C10.2263 48.114 14.5739 77.6308 33.8249 103.639C35.7954 106.301 53.3174 125.623 53.3174 125.623L0.0563965 178.885H27.8271L67.2031 139.508L106.603 178.909H117.902L57.7957 118.802L57.7994 118.792Z" fill="#33425F"/>
  <path fill-rule="evenodd" clip-rule="evenodd" d="M155.178 159.976L189.485 125.184C197.09 117.742 201.134 108.194 201.134 100.104C201.134 83.2744 187.703 70.491 167.961 70.491H146.847L127.508 89.4237H167.961C176.215 89.4237 181.879 94.2779 181.879 101.075C181.879 104.31 180.584 108.841 176.701 112.401L126.631 163.597L84.8729 121.839L136.247 70.4639H108.477L70.9871 107.954L69.0962 106.062C69.0992 106.059 69.1045 106.053 69.1045 106.053C65.2243 102.272 58.2743 94.4775 58.2743 94.4775C56.7307 92.6624 55.2742 90.8224 53.9086 88.9615C39.3535 69.135 35.0718 46.9951 44.6782 28.0473C50.748 16.0743 61.5767 6.92046 75.3866 0.90918C59.1635 6.26012 46.1624 15.6391 38.8222 28.6837C27.1914 49.3521 32.4125 74.5377 49.9368 96.5148C50.793 97.5871 59.7262 108.162 63.8653 112.131L130.665 178.909L130.664 178.863L130.677 178.909H133.997H201.944V159.976H155.178Z" fill="#20C1E5"/>
</svg>
